<?xml version="1.0" encoding="utf-8"?>
<!-- Generator: Adobe Illustrator 25.4.0, SVG Export Plug-In . SVG Version: 6.00 Build 0)  -->
<svg version="1.1" id="Layer_1" xmlns="http://www.w3.org/2000/svg" xmlns:xlink="http://www.w3.org/1999/xlink" x="0px" y="0px"
	 viewBox="0 0 200 50" style="enable-background:new 0 0 200 50;" xml:space="preserve">
<style type="text/css">
	.st0{fill:#1E135D;}
</style>
<g>
	<path class="st0" d="M18.99,14.57c1.23,2.14,2.46,4.26,3.69,6.39c-0.3,0.52-0.6,1.05-0.9,1.58c-0.93-1.62-1.86-3.22-2.79-4.84
		c-3.3,5.71-6.59,11.41-9.87,17.1c0.01,0.01,0.01,0.02,0.01,0.02c0,0,0.01,0,0.01,0c0,0,0.01,0,0.01,0c0.01,0,0.01,0,0.02,0
		c1.88,0,3.75,0,5.63,0c0,0,0.01,0,0.02,0.01c-0.01,0.02-0.02,0.04-0.03,0.06c-0.27,0.48-0.54,0.96-0.81,1.44
		c-0.03,0.05-0.06,0.08-0.11,0.07c-0.02,0-0.03,0-0.05,0c-2.43,0-4.85,0-7.28,0c-0.04,0-0.08,0-0.14,0
		C10.59,29.12,14.79,21.85,18.99,14.57z"/>
	<path class="st0" d="M31.6,36.4c-5.51,0-11.01,0-16.51,0c0.01-0.02,0.01-0.04,0.02-0.06c0.27-0.49,0.55-0.97,0.82-1.45
		c0.02-0.04,0.05-0.06,0.09-0.06c0.03,0,0.06,0,0.09,0c4.21,0,8.42,0,12.63,0c0.04,0,0.08,0,0.14,0c-0.02-0.04-0.03-0.06-0.05-0.09
		c-0.47-0.81-0.94-1.63-1.41-2.44c-1.43-2.49-2.87-4.97-4.3-7.46c-0.25-0.43-0.49-0.85-0.74-1.28c-0.02-0.04-0.04-0.08-0.01-0.13
		c0.28-0.49,0.56-0.99,0.84-1.48c0.01-0.01,0.02-0.02,0.03-0.05C26.02,26.74,28.8,31.56,31.6,36.4z"/>
	<path class="st0" d="M12.61,32.86c0.24,0.01,0.46,0,0.67,0c0.22,0,0.44,0,0.65,0c0.22,0,0.44,0,0.66,0c0.22,0,0.44,0,0.65,0
		c0.22,0,0.44,0,0.67,0c-0.02,0.04-0.03,0.06-0.04,0.09c-0.16,0.28-0.32,0.57-0.48,0.85c-0.03,0.05-0.06,0.07-0.12,0.07
		c-1.44,0-2.89,0-4.33,0c-0.03,0-0.05,0-0.08,0c0.02-0.07,8.03-13.95,8.12-14.08c0.01,0.02,0.03,0.04,0.04,0.05
		c0.71,1.23,1.42,2.45,2.12,3.68c0.02,0.04,0.04,0.07,0.01,0.12c-0.18,0.31-0.35,0.61-0.52,0.92c-0.01,0.01-0.02,0.02-0.03,0.04
		c-0.54-0.93-1.07-1.86-1.62-2.8C16.86,25.49,14.74,29.17,12.61,32.86z"/>
	<path class="st0" d="M27.12,33.86c-0.07,0.02-10.49,0.02-10.61,0.01c0.01-0.02,0.01-0.04,0.02-0.05c0.17-0.3,0.33-0.59,0.5-0.89
		c0.02-0.04,0.05-0.06,0.09-0.06c0.03,0,0.06,0,0.09,0c2.67,0,5.35,0,8.02,0c0.04,0,0.08,0,0.14,0c-0.02-0.04-0.04-0.07-0.05-0.1
		c-0.54-0.94-1.08-1.87-1.62-2.81c-0.83-1.44-1.66-2.88-2.49-4.31c-0.03-0.06-0.03-0.1,0-0.16c0.16-0.29,0.32-0.57,0.49-0.86
		c0.01-0.02,0.03-0.05,0.05-0.08C23.54,27.65,25.33,30.75,27.12,33.86z"/>
</g>
<g>
	<g>
		<path class="st0" d="M37.98,33.31l5-10.95h1.14l5,10.95h-1.22l-4.6-10.27h0.47l-4.6,10.27H37.98z M39.95,30.39l0.34-0.94h6.36
			L47,30.39H39.95z"/>
		<path class="st0" d="M50.94,33.31V22.37h4.1c0.93,0,1.73,0.15,2.39,0.45c0.67,0.3,1.18,0.72,1.54,1.28s0.54,1.23,0.54,2.02
			c0,0.77-0.18,1.44-0.54,1.99s-0.87,0.99-1.54,1.29c-0.67,0.3-1.46,0.45-2.39,0.45h-3.46l0.52-0.55v4H50.94z M52.1,29.4l-0.52-0.56
			h3.42c1.09,0,1.93-0.24,2.49-0.71c0.57-0.47,0.85-1.14,0.85-2.01c0-0.88-0.28-1.55-0.85-2.03c-0.57-0.48-1.4-0.72-2.49-0.72h-3.42
			l0.52-0.55V29.4z"/>
		<path class="st0" d="M66.95,33.41c-0.82,0-1.59-0.14-2.29-0.41s-1.31-0.67-1.83-1.17s-0.92-1.09-1.2-1.77
			c-0.29-0.67-0.43-1.41-0.43-2.21s0.14-1.54,0.43-2.21s0.69-1.26,1.2-1.77c0.52-0.51,1.12-0.9,1.82-1.17
			c0.7-0.28,1.46-0.41,2.3-0.41c0.82,0,1.58,0.14,2.28,0.41c0.7,0.28,1.31,0.66,1.82,1.17c0.52,0.5,0.92,1.09,1.2,1.77
			c0.29,0.68,0.43,1.42,0.43,2.22s-0.14,1.54-0.43,2.22c-0.29,0.68-0.69,1.27-1.2,1.77c-0.52,0.5-1.12,0.89-1.82,1.17
			C68.54,33.27,67.78,33.41,66.95,33.41z M66.95,32.37c0.66,0,1.26-0.11,1.82-0.34c0.56-0.22,1.04-0.54,1.45-0.95
			c0.41-0.41,0.73-0.89,0.96-1.44c0.23-0.55,0.34-1.15,0.34-1.81c0-0.66-0.11-1.26-0.34-1.81c-0.23-0.55-0.55-1.03-0.96-1.44
			c-0.41-0.41-0.9-0.73-1.45-0.95c-0.56-0.22-1.17-0.34-1.82-0.34s-1.27,0.11-1.83,0.34c-0.56,0.22-1.05,0.54-1.47,0.95
			s-0.74,0.89-0.97,1.44c-0.23,0.55-0.34,1.15-0.34,1.81c0,0.65,0.11,1.25,0.34,1.8c0.23,0.55,0.55,1.04,0.97,1.45
			c0.42,0.41,0.91,0.73,1.47,0.95C65.69,32.26,66.3,32.37,66.95,32.37z"/>
		<path class="st0" d="M75.29,33.31V22.37h4.1c0.93,0,1.73,0.15,2.39,0.45c0.67,0.3,1.18,0.72,1.54,1.28s0.54,1.23,0.54,2.02
			c0,0.77-0.18,1.44-0.54,1.99s-0.87,0.99-1.54,1.28c-0.67,0.3-1.46,0.45-2.39,0.45h-3.46l0.52-0.53v4H75.29z M76.45,29.4
			l-0.52-0.55h3.42c1.09,0,1.93-0.24,2.49-0.72c0.57-0.48,0.85-1.15,0.85-2.02c0-0.88-0.28-1.55-0.85-2.03
			c-0.57-0.48-1.4-0.72-2.49-0.72h-3.42l0.52-0.55V29.4z M82.76,33.31l-2.81-3.97h1.25l2.83,3.97H82.76z"/>
		<path class="st0" d="M91.39,33.41c-0.83,0-1.6-0.14-2.31-0.41s-1.31-0.67-1.83-1.17c-0.52-0.5-0.92-1.09-1.2-1.77
			c-0.29-0.68-0.43-1.42-0.43-2.22s0.14-1.54,0.43-2.22c0.29-0.68,0.69-1.27,1.21-1.77c0.52-0.5,1.13-0.89,1.84-1.17
			s1.47-0.41,2.31-0.41c0.83,0,1.6,0.13,2.29,0.39s1.29,0.66,1.77,1.19l-0.72,0.73c-0.46-0.46-0.96-0.79-1.52-0.99
			c-0.55-0.2-1.15-0.3-1.78-0.3c-0.68,0-1.3,0.11-1.87,0.34c-0.57,0.22-1.06,0.54-1.49,0.95c-0.42,0.41-0.75,0.89-0.98,1.44
			c-0.23,0.55-0.35,1.15-0.35,1.81c0,0.65,0.12,1.25,0.35,1.8c0.23,0.55,0.56,1.04,0.98,1.45c0.42,0.41,0.92,0.73,1.49,0.95
			c0.57,0.22,1.19,0.34,1.85,0.34c0.63,0,1.22-0.09,1.77-0.28c0.56-0.19,1.07-0.51,1.54-0.95l0.66,0.88
			c-0.52,0.46-1.13,0.81-1.83,1.04S92.16,33.41,91.39,33.41z M94.3,31.87v-4.03h1.11v4.17L94.3,31.87z"/>
		<path class="st0" d="M99.84,32.31h6.58v1h-7.74V22.37h7.51v1h-6.35V32.31z M99.71,27.26h5.79v0.99h-5.79V27.26z"/>
		<path class="st0" d="M117.99,33.41c-0.82,0-1.58-0.14-2.28-0.41c-0.7-0.28-1.3-0.67-1.81-1.17c-0.51-0.5-0.91-1.09-1.2-1.77
			c-0.29-0.68-0.43-1.42-0.43-2.22s0.14-1.54,0.43-2.22c0.29-0.68,0.69-1.27,1.2-1.77c0.52-0.5,1.12-0.89,1.82-1.17
			c0.7-0.28,1.46-0.41,2.28-0.41c0.79,0,1.54,0.13,2.24,0.4c0.7,0.27,1.29,0.66,1.77,1.2l-0.74,0.73c-0.45-0.46-0.94-0.79-1.49-0.99
			c-0.54-0.2-1.13-0.3-1.75-0.3c-0.66,0-1.27,0.11-1.83,0.34c-0.56,0.22-1.05,0.54-1.47,0.95s-0.74,0.89-0.98,1.44
			c-0.23,0.55-0.35,1.15-0.35,1.81c0,0.66,0.12,1.26,0.35,1.81s0.56,1.03,0.98,1.44c0.42,0.41,0.91,0.73,1.47,0.95
			c0.56,0.22,1.17,0.34,1.83,0.34c0.63,0,1.21-0.1,1.75-0.31c0.54-0.21,1.04-0.54,1.49-1l0.74,0.74c-0.48,0.53-1.07,0.93-1.77,1.2
			C119.55,33.27,118.79,33.41,117.99,33.41z"/>
		<path class="st0" d="M129.27,33.41c-0.82,0-1.59-0.14-2.29-0.41c-0.7-0.28-1.31-0.67-1.83-1.17s-0.92-1.09-1.2-1.77
			c-0.29-0.67-0.43-1.41-0.43-2.21s0.14-1.54,0.43-2.21c0.29-0.67,0.69-1.26,1.2-1.77c0.52-0.51,1.12-0.9,1.82-1.17
			c0.7-0.28,1.46-0.41,2.3-0.41c0.82,0,1.58,0.14,2.28,0.41s1.31,0.66,1.82,1.17c0.52,0.5,0.92,1.09,1.2,1.77
			c0.29,0.68,0.43,1.42,0.43,2.22s-0.14,1.54-0.43,2.22c-0.29,0.68-0.69,1.27-1.2,1.77c-0.52,0.5-1.12,0.89-1.82,1.17
			S130.09,33.41,129.27,33.41z M129.27,32.37c0.66,0,1.26-0.11,1.82-0.34c0.56-0.22,1.04-0.54,1.45-0.95
			c0.41-0.41,0.73-0.89,0.96-1.44c0.23-0.55,0.34-1.15,0.34-1.81c0-0.66-0.12-1.26-0.34-1.81c-0.23-0.55-0.55-1.03-0.96-1.44
			s-0.9-0.73-1.45-0.95c-0.56-0.22-1.17-0.34-1.82-0.34c-0.66,0-1.27,0.11-1.83,0.34c-0.56,0.22-1.05,0.54-1.47,0.95
			c-0.42,0.41-0.74,0.89-0.97,1.44c-0.23,0.55-0.34,1.15-0.34,1.81c0,0.65,0.11,1.25,0.34,1.8s0.55,1.04,0.97,1.45
			c0.42,0.41,0.91,0.73,1.47,0.95C128,32.26,128.61,32.37,129.27,32.37z"/>
		<path class="st0" d="M137.6,33.31V22.37h0.95l5,8.54h-0.5l4.96-8.54h0.95v10.95h-1.11V24.1h0.27l-4.57,7.82h-0.55l-4.6-7.82h0.3
			v9.21H137.6z"/>
		<path class="st0" d="M152.54,33.31V22.37h4.1c0.93,0,1.72,0.15,2.39,0.45c0.67,0.3,1.18,0.72,1.54,1.28s0.54,1.23,0.54,2.02
			c0,0.77-0.18,1.44-0.54,1.99s-0.87,0.99-1.54,1.29c-0.67,0.3-1.46,0.45-2.39,0.45h-3.46l0.52-0.55v4H152.54z M153.69,29.4
			l-0.52-0.56h3.42c1.09,0,1.93-0.24,2.49-0.71s0.85-1.14,0.85-2.01c0-0.88-0.28-1.55-0.85-2.03s-1.4-0.72-2.49-0.72h-3.42
			l0.52-0.55V29.4z"/>
		<path class="st0" d="M162.01,33.31l5-10.95h1.14l5,10.95h-1.22l-4.6-10.27h0.47l-4.6,10.27H162.01z M163.98,30.39l0.34-0.94h6.36
			l0.34,0.94H163.98z"/>
		<path class="st0" d="M174.97,33.31V22.37h0.95l7.55,9.51h-0.5v-9.51h1.14v10.95h-0.95l-7.54-9.51h0.5v9.51H174.97z"/>
		<path class="st0" d="M190.3,33.31v-4.07l0.27,0.72l-4.64-7.6h1.24l4.08,6.68h-0.66l4.08-6.68h1.16l-4.64,7.6l0.27-0.72v4.07H190.3
			z"/>
	</g>
</g>
</svg>
